<svg width="145" height="67" viewBox="0 0 145 67" fill="none" xmlns="http://www.w3.org/2000/svg">
<rect width="145" height="67" rx="33.5" fill="#F9D183"/>
<g filter="url(#filter0_f_15_150)">
<circle cx="37.5" cy="33.5" r="23.5" fill="#A8A1B8" fill-opacity="0.2"/>
</g>
<path d="M37.5 17.4211C36.3744 17.4211 35.4901 18.3054 35.4901 19.4309C35.4901 20.5565 36.3744 21.4408 37.5 21.4408C38.6255 21.4408 39.5098 20.5565 39.5098 19.4309C39.5098 18.3054 38.6255 17.4211 37.5 17.4211ZM27.4506 21.4408C26.3251 21.4408 25.4408 22.3252 25.4408 23.4507C25.4408 24.5762 26.3251 25.4606 27.4506 25.4606C28.5762 25.4606 29.4605 24.5762 29.4605 23.4507C29.4605 22.3252 28.5762 21.4408 27.4506 21.4408ZM47.5493 21.4408C46.4238 21.4408 45.5394 22.3252 45.5394 23.4507C45.5394 24.5762 46.4238 25.4606 47.5493 25.4606C48.6748 25.4606 49.5592 24.5762 49.5592 23.4507C49.5592 22.3252 48.6748 21.4408 47.5493 21.4408ZM37.5 25.4606C33.0783 25.4606 29.4605 29.0783 29.4605 33.5C29.4605 37.9217 33.0783 41.5395 37.5 41.5395C41.9217 41.5395 45.5394 37.9217 45.5394 33.5C45.5394 29.0783 41.9217 25.4606 37.5 25.4606ZM23.4309 31.4902C22.3054 31.4902 21.421 32.3745 21.421 33.5C21.421 34.6256 22.3054 35.5099 23.4309 35.5099C24.5564 35.5099 25.4408 34.6256 25.4408 33.5C25.4408 32.3745 24.5564 31.4902 23.4309 31.4902ZM51.569 31.4902C50.4435 31.4902 49.5592 32.3745 49.5592 33.5C49.5592 34.6256 50.4435 35.5099 51.569 35.5099C52.6946 35.5099 53.5789 34.6256 53.5789 33.5C53.5789 32.3745 52.6946 31.4902 51.569 31.4902ZM27.4506 41.5395C26.3251 41.5395 25.4408 42.4238 25.4408 43.5494C25.4408 44.6749 26.3251 45.5592 27.4506 45.5592C28.5762 45.5592 29.4605 44.6749 29.4605 43.5494C29.4605 42.4238 28.5762 41.5395 27.4506 41.5395ZM47.5493 41.5395C46.4238 41.5395 45.5394 42.4238 45.5394 43.5494C45.5394 44.6749 46.4238 45.5592 47.5493 45.5592C48.6748 45.5592 49.5592 44.6749 49.5592 43.5494C49.5592 42.4238 48.6748 41.5395 47.5493 41.5395ZM37.5 45.5592C36.3744 45.5592 35.4901 46.4436 35.4901 47.5691C35.4901 48.6946 36.3744 49.579 37.5 49.579C38.6255 49.579 39.5098 48.6946 39.5098 47.5691C39.5098 46.4436 38.6255 45.5592 37.5 45.5592Z" fill="#FFFEFB"/>
<defs>
<filter id="filter0_f_15_150" x="12" y="8" width="51" height="51" filterUnits="userSpaceOnUse" color-interpolation-filters="sRGB">
<feFlood flood-opacity="0" result="BackgroundImageFix"/>
<feBlend mode="normal" in="SourceGraphic" in2="BackgroundImageFix" result="shape"/>
<feGaussianBlur stdDeviation="1" result="effect1_foregroundBlur_15_150"/>
</filter>
</defs>
</svg>
