<svg width="145" height="67" viewBox="0 0 145 67" fill="none" xmlns="http://www.w3.org/2000/svg">
<rect width="145" height="67" rx="33.5" fill="#4C3A80"/>
<path d="M80.52 26C81.4933 26 82.3533 26.1867 83.1 26.56C83.8467 26.92 84.4667 27.4267 84.96 28.08C85.4667 28.72 85.8467 29.4667 86.1 30.32C86.3533 31.16 86.48 32.0533 86.48 33C86.48 34.2933 86.2533 35.4733 85.8 36.54C85.3467 37.5933 84.68 38.4333 83.8 39.06C82.92 39.6867 81.8267 40 80.52 40H75.64C75.36 40 75.12 39.9067 74.92 39.72C74.72 39.52 74.62 39.2733 74.62 38.98V27.02C74.62 26.7267 74.72 26.4867 74.92 26.3C75.12 26.1 75.36 26 75.64 26H80.52ZM80.32 38.08C81.2667 38.08 82.0333 37.8467 82.62 37.38C83.2067 36.9133 83.6333 36.3 83.9 35.54C84.18 34.7667 84.32 33.92 84.32 33C84.32 32.32 84.24 31.68 84.08 31.08C83.9333 30.4667 83.6933 29.9267 83.36 29.46C83.04 28.98 82.6267 28.6067 82.12 28.34C81.6267 28.06 81.0267 27.92 80.32 27.92H76.54L76.72 27.74V38.28L76.6 38.08H80.32ZM97.3364 29.32C97.6297 29.32 97.8697 29.42 98.0564 29.62C98.2431 29.8067 98.3364 30.0467 98.3364 30.34V38.98C98.3364 39.2733 98.2431 39.52 98.0564 39.72C97.8697 39.9067 97.6297 40 97.3364 40C97.0564 40 96.8164 39.9067 96.6164 39.72C96.4297 39.52 96.3364 39.2733 96.3364 38.98V37.54L96.7564 37.6C96.7564 37.84 96.6564 38.1067 96.4564 38.4C96.2697 38.6933 96.0097 38.98 95.6764 39.26C95.3431 39.5267 94.9497 39.7533 94.4964 39.94C94.0431 40.1133 93.5564 40.2 93.0364 40.2C92.1164 40.2 91.2897 39.9667 90.5564 39.5C89.8231 39.02 89.2431 38.3667 88.8164 37.54C88.3897 36.7133 88.1764 35.7733 88.1764 34.72C88.1764 33.64 88.3897 32.6933 88.8164 31.88C89.2431 31.0533 89.8164 30.4067 90.5364 29.94C91.2697 29.4733 92.0831 29.24 92.9764 29.24C93.5497 29.24 94.0764 29.3333 94.5564 29.52C95.0497 29.7067 95.4764 29.9467 95.8364 30.24C96.1964 30.5333 96.4697 30.8467 96.6564 31.18C96.8564 31.5 96.9564 31.8067 96.9564 32.1L96.3364 32.16V30.34C96.3364 30.06 96.4297 29.82 96.6164 29.62C96.8164 29.42 97.0564 29.32 97.3364 29.32ZM93.2564 38.36C93.8831 38.36 94.4364 38.2 94.9164 37.88C95.3964 37.56 95.7697 37.1267 96.0364 36.58C96.3031 36.02 96.4364 35.4 96.4364 34.72C96.4364 34.0267 96.3031 33.4067 96.0364 32.86C95.7697 32.3133 95.3964 31.88 94.9164 31.56C94.4364 31.24 93.8831 31.08 93.2564 31.08C92.6431 31.08 92.0964 31.24 91.6164 31.56C91.1497 31.88 90.7764 32.3133 90.4964 32.86C90.2297 33.4067 90.0964 34.0267 90.0964 34.72C90.0964 35.4 90.2297 36.02 90.4964 36.58C90.7764 37.1267 91.1497 37.56 91.6164 37.88C92.0964 38.2 92.6431 38.36 93.2564 38.36ZM102.138 40C101.845 40 101.605 39.9067 101.418 39.72C101.232 39.52 101.138 39.2733 101.138 38.98V30.5C101.138 30.2067 101.232 29.9667 101.418 29.78C101.605 29.58 101.845 29.48 102.138 29.48C102.418 29.48 102.652 29.58 102.838 29.78C103.038 29.9667 103.138 30.2067 103.138 30.5V32.74L102.938 31.88C103.045 31.5067 103.205 31.16 103.418 30.84C103.645 30.52 103.912 30.24 104.218 30C104.525 29.76 104.865 29.5733 105.238 29.44C105.625 29.3067 106.025 29.24 106.438 29.24C106.785 29.24 107.085 29.3333 107.338 29.52C107.592 29.7067 107.718 29.94 107.718 30.22C107.718 30.58 107.625 30.8467 107.438 31.02C107.252 31.18 107.045 31.26 106.818 31.26C106.618 31.26 106.425 31.22 106.238 31.14C106.052 31.0467 105.832 31 105.578 31C105.298 31 105.012 31.0733 104.718 31.22C104.425 31.3667 104.158 31.5867 103.918 31.88C103.678 32.16 103.485 32.4933 103.338 32.88C103.205 33.2667 103.138 33.7 103.138 34.18V38.98C103.138 39.2733 103.038 39.52 102.838 39.72C102.652 39.9067 102.418 40 102.138 40ZM110.658 40C110.378 40 110.138 39.9067 109.938 39.72C109.751 39.52 109.658 39.2733 109.658 38.98V26.22C109.658 25.9267 109.751 25.6867 109.938 25.5C110.138 25.3 110.378 25.2 110.658 25.2C110.951 25.2 111.191 25.3 111.378 25.5C111.564 25.6867 111.658 25.9267 111.658 26.22V38.98C111.658 39.2733 111.564 39.52 111.378 39.72C111.191 39.9067 110.951 40 110.658 40ZM117.178 29.44C117.431 29.44 117.651 29.5467 117.838 29.76C118.024 29.9733 118.118 30.1867 118.118 30.4C118.118 30.6667 117.991 30.9133 117.738 31.14L111.478 36.74L111.398 34.44L116.438 29.76C116.651 29.5467 116.898 29.44 117.178 29.44ZM117.418 39.98C117.138 39.98 116.898 39.8667 116.698 39.64L112.698 35.42L114.218 34.02L118.118 38.24C118.331 38.4667 118.438 38.72 118.438 39C118.438 39.2933 118.318 39.5333 118.078 39.72C117.851 39.8933 117.631 39.98 117.418 39.98Z" fill="#FFFEFB"/>
</svg>
