<svg width="68" height="32" viewBox="0 0 68 32" fill="none" xmlns="http://www.w3.org/2000/svg">
<rect width="68" height="32" rx="16" fill="#F9D183"/>
<g filter="url(#filter0_f_15_165)">
<circle cx="18.5238" cy="15.5238" r="11.5238" fill="#A8A1B8" fill-opacity="0.2"/>
</g>
<path d="M19 9C18.51 9 18.125 9.385 18.125 9.875C18.125 10.365 18.51 10.75 19 10.75C19.49 10.75 19.875 10.365 19.875 9.875C19.875 9.385 19.49 9 19 9ZM14.625 10.75C14.135 10.75 13.75 11.135 13.75 11.625C13.75 12.115 14.135 12.5 14.625 12.5C15.115 12.5 15.5 12.115 15.5 11.625C15.5 11.135 15.115 10.75 14.625 10.75ZM23.375 10.75C22.885 10.75 22.5 11.135 22.5 11.625C22.5 12.115 22.885 12.5 23.375 12.5C23.865 12.5 24.25 12.115 24.25 11.625C24.25 11.135 23.865 10.75 23.375 10.75ZM19 12.5C17.075 12.5 15.5 14.075 15.5 16C15.5 17.925 17.075 19.5 19 19.5C20.925 19.5 22.5 17.925 22.5 16C22.5 14.075 20.925 12.5 19 12.5ZM12.875 15.125C12.385 15.125 12 15.51 12 16C12 16.49 12.385 16.875 12.875 16.875C13.365 16.875 13.75 16.49 13.75 16C13.75 15.51 13.365 15.125 12.875 15.125ZM25.125 15.125C24.635 15.125 24.25 15.51 24.25 16C24.25 16.49 24.635 16.875 25.125 16.875C25.615 16.875 26 16.49 26 16C26 15.51 25.615 15.125 25.125 15.125ZM14.625 19.5C14.135 19.5 13.75 19.885 13.75 20.375C13.75 20.865 14.135 21.25 14.625 21.25C15.115 21.25 15.5 20.865 15.5 20.375C15.5 19.885 15.115 19.5 14.625 19.5ZM23.375 19.5C22.885 19.5 22.5 19.885 22.5 20.375C22.5 20.865 22.885 21.25 23.375 21.25C23.865 21.25 24.25 20.865 24.25 20.375C24.25 19.885 23.865 19.5 23.375 19.5ZM19 21.25C18.51 21.25 18.125 21.635 18.125 22.125C18.125 22.615 18.51 23 19 23C19.49 23 19.875 22.615 19.875 22.125C19.875 21.635 19.49 21.25 19 21.25Z" fill="#FFFEFB"/>
<defs>
<filter id="filter0_f_15_165" x="5" y="2" width="27.0476" height="27.0476" filterUnits="userSpaceOnUse" color-interpolation-filters="sRGB">
<feFlood flood-opacity="0" result="BackgroundImageFix"/>
<feBlend mode="normal" in="SourceGraphic" in2="BackgroundImageFix" result="shape"/>
<feGaussianBlur stdDeviation="1" result="effect1_foregroundBlur_15_165"/>
</filter>
</defs>
</svg>
