<svg width="54" height="54" viewBox="0 0 54 54" fill="none" xmlns="http://www.w3.org/2000/svg">
<circle cx="27" cy="27" r="27" fill="#292336" fill-opacity="0.15"/>
<path d="M26.7368 11C25.6353 11 24.7697 11.8655 24.7697 12.9671C24.7697 14.0687 25.6353 14.9342 26.7368 14.9342C27.8384 14.9342 28.7039 14.0687 28.7039 12.9671C28.7039 11.8655 27.8384 11 26.7368 11ZM16.9013 14.9342C15.7997 14.9342 14.9342 15.7997 14.9342 16.9013C14.9342 18.0029 15.7997 18.8684 16.9013 18.8684C18.0029 18.8684 18.8684 18.0029 18.8684 16.9013C18.8684 15.7997 18.0029 14.9342 16.9013 14.9342ZM36.5724 14.9342C35.4708 14.9342 34.6053 15.7997 34.6053 16.9013C34.6053 18.0029 35.4708 18.8684 36.5724 18.8684C37.6739 18.8684 38.5395 18.0029 38.5395 16.9013C38.5395 15.7997 37.6739 14.9342 36.5724 14.9342ZM26.7368 18.8684C22.4092 18.8684 18.8684 22.4092 18.8684 26.7368C18.8684 31.0645 22.4092 34.6053 26.7368 34.6053C31.0645 34.6053 34.6053 31.0645 34.6053 26.7368C34.6053 22.4092 31.0645 18.8684 26.7368 18.8684ZM12.9671 24.7697C11.8655 24.7697 11 25.6353 11 26.7368C11 27.8384 11.8655 28.7039 12.9671 28.7039C14.0687 28.7039 14.9342 27.8384 14.9342 26.7368C14.9342 25.6353 14.0687 24.7697 12.9671 24.7697ZM40.5066 24.7697C39.405 24.7697 38.5395 25.6353 38.5395 26.7368C38.5395 27.8384 39.405 28.7039 40.5066 28.7039C41.6082 28.7039 42.4737 27.8384 42.4737 26.7368C42.4737 25.6353 41.6082 24.7697 40.5066 24.7697ZM16.9013 34.6053C15.7997 34.6053 14.9342 35.4708 14.9342 36.5724C14.9342 37.6739 15.7997 38.5395 16.9013 38.5395C18.0029 38.5395 18.8684 37.6739 18.8684 36.5724C18.8684 35.4708 18.0029 34.6053 16.9013 34.6053ZM36.5724 34.6053C35.4708 34.6053 34.6053 35.4708 34.6053 36.5724C34.6053 37.6739 35.4708 38.5395 36.5724 38.5395C37.6739 38.5395 38.5395 37.6739 38.5395 36.5724C38.5395 35.4708 37.6739 34.6053 36.5724 34.6053ZM26.7368 38.5395C25.6353 38.5395 24.7697 39.405 24.7697 40.5066C24.7697 41.6082 25.6353 42.4737 26.7368 42.4737C27.8384 42.4737 28.7039 41.6082 28.7039 40.5066C28.7039 39.405 27.8384 38.5395 26.7368 38.5395Z" fill="#FFFEFB"/>
</svg>
