<svg width="145" height="67" viewBox="0 0 145 67" fill="none" xmlns="http://www.w3.org/2000/svg">
<rect width="145" height="67" rx="33.5" fill="#F9D183"/>
<path d="M34.36 38.04C34.64 38.04 34.8733 38.1333 35.06 38.32C35.26 38.5067 35.36 38.74 35.36 39.02C35.36 39.3 35.26 39.5333 35.06 39.72C34.8733 39.9067 34.64 40 34.36 40H27.64C27.3467 40 27.1 39.9067 26.9 39.72C26.7133 39.52 26.62 39.2733 26.62 38.98V27.02C26.62 26.7267 26.72 26.4867 26.92 26.3C27.12 26.1 27.38 26 27.7 26C27.9667 26 28.2 26.1 28.4 26.3C28.6133 26.4867 28.72 26.7267 28.72 27.02V38.38L28.3 38.04H34.36ZM39.3152 38.98C39.3152 39.2733 39.2218 39.52 39.0352 39.72C38.8485 39.9067 38.6085 40 38.3152 40C38.0352 40 37.7952 39.9067 37.5952 39.72C37.4085 39.52 37.3152 39.2733 37.3152 38.98V30.42C37.3152 30.1267 37.4085 29.8867 37.5952 29.7C37.7952 29.5 38.0352 29.4 38.3152 29.4C38.6085 29.4 38.8485 29.5 39.0352 29.7C39.2218 29.8867 39.3152 30.1267 39.3152 30.42V38.98ZM38.2952 28.08C37.9085 28.08 37.6285 28.0133 37.4552 27.88C37.2818 27.7333 37.1952 27.4933 37.1952 27.16V26.84C37.1952 26.5067 37.2885 26.2733 37.4752 26.14C37.6618 26.0067 37.9418 25.94 38.3152 25.94C38.7152 25.94 39.0018 26.0133 39.1752 26.16C39.3485 26.2933 39.4352 26.52 39.4352 26.84V27.16C39.4352 27.5067 39.3418 27.7467 39.1552 27.88C38.9818 28.0133 38.6952 28.08 38.2952 28.08ZM46.3855 29.24C46.9588 29.24 47.4855 29.3333 47.9655 29.52C48.4455 29.7067 48.8588 29.9467 49.2055 30.24C49.5655 30.52 49.8455 30.8133 50.0455 31.12C50.2455 31.4267 50.3455 31.6933 50.3455 31.92L49.8855 31.94V30.34C49.8855 30.06 49.9788 29.82 50.1655 29.62C50.3521 29.42 50.5921 29.32 50.8855 29.32C51.1788 29.32 51.4188 29.42 51.6055 29.62C51.7921 29.8067 51.8855 30.0467 51.8855 30.34V39.16C51.8855 40.2933 51.6455 41.2133 51.1655 41.92C50.6855 42.64 50.0455 43.1667 49.2455 43.5C48.4588 43.8333 47.5921 44 46.6455 44C46.3121 44 45.9188 43.9533 45.4655 43.86C45.0121 43.78 44.5921 43.68 44.2055 43.56C43.8321 43.44 43.5721 43.32 43.4255 43.2C43.1188 43.04 42.9121 42.8533 42.8055 42.64C42.7121 42.4267 42.7121 42.2133 42.8055 42C42.9388 41.7067 43.1188 41.5267 43.3455 41.46C43.5721 41.3933 43.8321 41.4133 44.1255 41.52C44.2588 41.56 44.4655 41.6333 44.7455 41.74C45.0255 41.8467 45.3388 41.94 45.6855 42.02C46.0321 42.1133 46.3588 42.16 46.6655 42.16C47.7321 42.16 48.5321 41.9133 49.0655 41.42C49.6121 40.9267 49.8855 40.2533 49.8855 39.4V37.6L50.1055 37.74C50.0655 38.02 49.9388 38.3067 49.7255 38.6C49.5255 38.88 49.2588 39.14 48.9255 39.38C48.5921 39.62 48.2055 39.82 47.7655 39.98C47.3388 40.1267 46.8988 40.2 46.4455 40.2C45.4988 40.2 44.6521 39.9667 43.9055 39.5C43.1588 39.02 42.5655 38.3733 42.1255 37.56C41.6855 36.7333 41.4655 35.7867 41.4655 34.72C41.4655 33.6533 41.6855 32.7133 42.1255 31.9C42.5655 31.0733 43.1521 30.4267 43.8855 29.96C44.6321 29.48 45.4655 29.24 46.3855 29.24ZM46.6855 31.08C46.0321 31.08 45.4588 31.24 44.9655 31.56C44.4721 31.88 44.0855 32.3133 43.8055 32.86C43.5255 33.4067 43.3855 34.0267 43.3855 34.72C43.3855 35.4133 43.5255 36.0333 43.8055 36.58C44.0855 37.1267 44.4721 37.56 44.9655 37.88C45.4588 38.2 46.0321 38.36 46.6855 38.36C47.3388 38.36 47.9121 38.2067 48.4055 37.9C48.8988 37.58 49.2855 37.1467 49.5655 36.6C49.8455 36.04 49.9855 35.4133 49.9855 34.72C49.9855 34.0267 49.8455 33.4067 49.5655 32.86C49.2855 32.3 48.8988 31.8667 48.4055 31.56C47.9121 31.24 47.3388 31.08 46.6855 31.08ZM59.9617 29.3C60.8817 29.3 61.5951 29.5 62.1017 29.9C62.6084 30.2867 62.9617 30.8133 63.1617 31.48C63.3751 32.1467 63.4817 32.88 63.4817 33.68V38.98C63.4817 39.2733 63.3817 39.52 63.1817 39.72C62.9951 39.9067 62.7617 40 62.4817 40C62.1884 40 61.9484 39.9067 61.7617 39.72C61.5751 39.52 61.4817 39.2733 61.4817 38.98V33.68C61.4817 33.2133 61.4151 32.7867 61.2817 32.4C61.1617 32.0133 60.9417 31.7067 60.6217 31.48C60.3151 31.2533 59.8817 31.14 59.3217 31.14C58.8017 31.14 58.3351 31.2533 57.9217 31.48C57.5217 31.7067 57.2084 32.0133 56.9817 32.4C56.7684 32.7867 56.6617 33.2133 56.6617 33.68V38.98C56.6617 39.2733 56.5617 39.52 56.3617 39.72C56.1751 39.9067 55.9417 40 55.6617 40C55.3684 40 55.1284 39.9067 54.9417 39.72C54.7551 39.52 54.6617 39.2733 54.6617 38.98V26.22C54.6617 25.9267 54.7551 25.6867 54.9417 25.5C55.1284 25.3 55.3684 25.2 55.6617 25.2C55.9417 25.2 56.1751 25.3 56.3617 25.5C56.5617 25.6867 56.6617 25.9267 56.6617 26.22V31.68L56.3017 31.88C56.3951 31.5867 56.5484 31.2867 56.7617 30.98C56.9884 30.6733 57.2617 30.3933 57.5817 30.14C57.9151 29.8867 58.2817 29.6867 58.6817 29.54C59.0817 29.38 59.5084 29.3 59.9617 29.3ZM66.1233 29.6H70.8233C71.0899 29.6 71.3099 29.6933 71.4833 29.88C71.6699 30.0533 71.7633 30.2733 71.7633 30.54C71.7633 30.7933 71.6699 31.0067 71.4833 31.18C71.3099 31.3533 71.0899 31.44 70.8233 31.44H66.1233C65.8566 31.44 65.6299 31.3533 65.4433 31.18C65.2699 30.9933 65.1833 30.7733 65.1833 30.52C65.1833 30.2533 65.2699 30.0333 65.4433 29.86C65.6299 29.6867 65.8566 29.6 66.1233 29.6ZM68.2233 27C68.5166 27 68.7566 27.1 68.9433 27.3C69.1299 27.4867 69.2233 27.7267 69.2233 28.02V37.3C69.2233 37.54 69.2633 37.7333 69.3433 37.88C69.4233 38.0267 69.5299 38.1267 69.6633 38.18C69.8099 38.2333 69.9566 38.26 70.1033 38.26C70.2499 38.26 70.3766 38.2333 70.4833 38.18C70.6033 38.1267 70.7433 38.1 70.9033 38.1C71.0633 38.1 71.2099 38.1733 71.3433 38.32C71.4766 38.4667 71.5433 38.6667 71.5433 38.92C71.5433 39.24 71.3699 39.5 71.0233 39.7C70.6766 39.9 70.3033 40 69.9033 40C69.6766 40 69.4099 39.98 69.1033 39.94C68.7966 39.9 68.4966 39.8 68.2033 39.64C67.9233 39.48 67.6899 39.2267 67.5033 38.88C67.3166 38.52 67.2233 38.02 67.2233 37.38V28.02C67.2233 27.7267 67.3166 27.4867 67.5033 27.3C67.7033 27.1 67.9433 27 68.2233 27Z" fill="#585858"/>
</svg>
