<svg width="96" height="32" viewBox="0 0 96 32" fill="none" xmlns="http://www.w3.org/2000/svg">
<rect width="68" height="32" rx="16" fill="#4C3A80"/>
<path d="M39.76 13C40.2467 13 40.6767 13.0933 41.05 13.28C41.4233 13.46 41.7333 13.7133 41.98 14.04C42.2333 14.36 42.4233 14.7333 42.55 15.16C42.6767 15.58 42.74 16.0267 42.74 16.5C42.74 17.1467 42.6267 17.7367 42.4 18.27C42.1733 18.7967 41.84 19.2167 41.4 19.53C40.96 19.8433 40.4133 20 39.76 20H37.32C37.18 20 37.06 19.9533 36.96 19.86C36.86 19.76 36.81 19.6367 36.81 19.49V13.51C36.81 13.3633 36.86 13.2433 36.96 13.15C37.06 13.05 37.18 13 37.32 13H39.76ZM39.66 19.04C40.1333 19.04 40.5167 18.9233 40.81 18.69C41.1033 18.4567 41.3167 18.15 41.45 17.77C41.59 17.3833 41.66 16.96 41.66 16.5C41.66 16.16 41.62 15.84 41.54 15.54C41.4667 15.2333 41.3467 14.9633 41.18 14.73C41.02 14.49 40.8133 14.3033 40.56 14.17C40.3133 14.03 40.0133 13.96 39.66 13.96H37.77L37.86 13.87V19.14L37.8 19.04H39.66ZM48.1682 14.66C48.3149 14.66 48.4349 14.71 48.5282 14.81C48.6215 14.9033 48.6682 15.0233 48.6682 15.17V19.49C48.6682 19.6367 48.6215 19.76 48.5282 19.86C48.4349 19.9533 48.3149 20 48.1682 20C48.0282 20 47.9082 19.9533 47.8082 19.86C47.7149 19.76 47.6682 19.6367 47.6682 19.49V18.77L47.8782 18.8C47.8782 18.92 47.8282 19.0533 47.7282 19.2C47.6349 19.3467 47.5049 19.49 47.3382 19.63C47.1715 19.7633 46.9749 19.8767 46.7482 19.97C46.5215 20.0567 46.2782 20.1 46.0182 20.1C45.5582 20.1 45.1449 19.9833 44.7782 19.75C44.4115 19.51 44.1215 19.1833 43.9082 18.77C43.6949 18.3567 43.5882 17.8867 43.5882 17.36C43.5882 16.82 43.6949 16.3467 43.9082 15.94C44.1215 15.5267 44.4082 15.2033 44.7682 14.97C45.1349 14.7367 45.5415 14.62 45.9882 14.62C46.2749 14.62 46.5382 14.6667 46.7782 14.76C47.0249 14.8533 47.2382 14.9733 47.4182 15.12C47.5982 15.2667 47.7349 15.4233 47.8282 15.59C47.9282 15.75 47.9782 15.9033 47.9782 16.05L47.6682 16.08V15.17C47.6682 15.03 47.7149 14.91 47.8082 14.81C47.9082 14.71 48.0282 14.66 48.1682 14.66ZM46.1282 19.18C46.4415 19.18 46.7182 19.1 46.9582 18.94C47.1982 18.78 47.3849 18.5633 47.5182 18.29C47.6515 18.01 47.7182 17.7 47.7182 17.36C47.7182 17.0133 47.6515 16.7033 47.5182 16.43C47.3849 16.1567 47.1982 15.94 46.9582 15.78C46.7182 15.62 46.4415 15.54 46.1282 15.54C45.8215 15.54 45.5482 15.62 45.3082 15.78C45.0749 15.94 44.8882 16.1567 44.7482 16.43C44.6149 16.7033 44.5482 17.0133 44.5482 17.36C44.5482 17.7 44.6149 18.01 44.7482 18.29C44.8882 18.5633 45.0749 18.78 45.3082 18.94C45.5482 19.1 45.8215 19.18 46.1282 19.18ZM50.5691 20C50.4225 20 50.3025 19.9533 50.2091 19.86C50.1158 19.76 50.0691 19.6367 50.0691 19.49V15.25C50.0691 15.1033 50.1158 14.9833 50.2091 14.89C50.3025 14.79 50.4225 14.74 50.5691 14.74C50.7091 14.74 50.8258 14.79 50.9191 14.89C51.0191 14.9833 51.0691 15.1033 51.0691 15.25V16.37L50.9691 15.94C51.0225 15.7533 51.1025 15.58 51.2091 15.42C51.3225 15.26 51.4558 15.12 51.6091 15C51.7625 14.88 51.9325 14.7867 52.1191 14.72C52.3125 14.6533 52.5125 14.62 52.7191 14.62C52.8925 14.62 53.0425 14.6667 53.1691 14.76C53.2958 14.8533 53.3591 14.97 53.3591 15.11C53.3591 15.29 53.3125 15.4233 53.2191 15.51C53.1258 15.59 53.0225 15.63 52.9091 15.63C52.8091 15.63 52.7125 15.61 52.6191 15.57C52.5258 15.5233 52.4158 15.5 52.2891 15.5C52.1491 15.5 52.0058 15.5367 51.8591 15.61C51.7125 15.6833 51.5791 15.7933 51.4591 15.94C51.3391 16.08 51.2425 16.2467 51.1691 16.44C51.1025 16.6333 51.0691 16.85 51.0691 17.09V19.49C51.0691 19.6367 51.0191 19.76 50.9191 19.86C50.8258 19.9533 50.7091 20 50.5691 20ZM54.8288 20C54.6888 20 54.5688 19.9533 54.4688 19.86C54.3755 19.76 54.3288 19.6367 54.3288 19.49V13.11C54.3288 12.9633 54.3755 12.8433 54.4688 12.75C54.5688 12.65 54.6888 12.6 54.8288 12.6C54.9755 12.6 55.0955 12.65 55.1888 12.75C55.2822 12.8433 55.3288 12.9633 55.3288 13.11V19.49C55.3288 19.6367 55.2822 19.76 55.1888 19.86C55.0955 19.9533 54.9755 20 54.8288 20ZM58.0888 14.72C58.2155 14.72 58.3255 14.7733 58.4188 14.88C58.5122 14.9867 58.5588 15.0933 58.5588 15.2C58.5588 15.3333 58.4955 15.4567 58.3688 15.57L55.2388 18.37L55.1988 17.22L57.7188 14.88C57.8255 14.7733 57.9488 14.72 58.0888 14.72ZM58.2088 19.99C58.0688 19.99 57.9488 19.9333 57.8488 19.82L55.8488 17.71L56.6088 17.01L58.5588 19.12C58.6655 19.2333 58.7188 19.36 58.7188 19.5C58.7188 19.6467 58.6588 19.7667 58.5388 19.86C58.4255 19.9467 58.3155 19.99 58.2088 19.99Z" fill="#FFFEFB"/>
</svg>
