<svg width="68" height="32" viewBox="0 0 68 32" fill="none" xmlns="http://www.w3.org/2000/svg">
<rect width="68" height="32" rx="16" fill="#F9D183"/>
<path d="M12.68 19.02C12.82 19.02 12.9367 19.0667 13.03 19.16C13.13 19.2533 13.18 19.37 13.18 19.51C13.18 19.65 13.13 19.7667 13.03 19.86C12.9367 19.9533 12.82 20 12.68 20H9.32C9.17333 20 9.05 19.9533 8.95 19.86C8.85667 19.76 8.81 19.6367 8.81 19.49V13.51C8.81 13.3633 8.86 13.2433 8.96 13.15C9.06 13.05 9.19 13 9.35 13C9.48333 13 9.6 13.05 9.7 13.15C9.80667 13.2433 9.86 13.3633 9.86 13.51V19.19L9.65 19.02H12.68ZM15.1576 19.49C15.1576 19.6367 15.1109 19.76 15.0176 19.86C14.9242 19.9533 14.8042 20 14.6576 20C14.5176 20 14.3976 19.9533 14.2976 19.86C14.2042 19.76 14.1576 19.6367 14.1576 19.49V15.21C14.1576 15.0633 14.2042 14.9433 14.2976 14.85C14.3976 14.75 14.5176 14.7 14.6576 14.7C14.8042 14.7 14.9242 14.75 15.0176 14.85C15.1109 14.9433 15.1576 15.0633 15.1576 15.21V19.49ZM14.6476 14.04C14.4542 14.04 14.3142 14.0067 14.2276 13.94C14.1409 13.8667 14.0976 13.7467 14.0976 13.58V13.42C14.0976 13.2533 14.1442 13.1367 14.2376 13.07C14.3309 13.0033 14.4709 12.97 14.6576 12.97C14.8576 12.97 15.0009 13.0067 15.0876 13.08C15.1742 13.1467 15.2176 13.26 15.2176 13.42V13.58C15.2176 13.7533 15.1709 13.8733 15.0776 13.94C14.9909 14.0067 14.8476 14.04 14.6476 14.04ZM18.6927 14.62C18.9794 14.62 19.2427 14.6667 19.4827 14.76C19.7227 14.8533 19.9294 14.9733 20.1027 15.12C20.2827 15.26 20.4227 15.4067 20.5227 15.56C20.6227 15.7133 20.6727 15.8467 20.6727 15.96L20.4427 15.97V15.17C20.4427 15.03 20.4894 14.91 20.5827 14.81C20.6761 14.71 20.7961 14.66 20.9427 14.66C21.0894 14.66 21.2094 14.71 21.3027 14.81C21.3961 14.9033 21.4427 15.0233 21.4427 15.17V19.58C21.4427 20.1467 21.3227 20.6067 21.0827 20.96C20.8427 21.32 20.5227 21.5833 20.1227 21.75C19.7294 21.9167 19.2961 22 18.8227 22C18.6561 22 18.4594 21.9767 18.2327 21.93C18.0061 21.89 17.7961 21.84 17.6027 21.78C17.4161 21.72 17.2861 21.66 17.2127 21.6C17.0594 21.52 16.9561 21.4267 16.9027 21.32C16.8561 21.2133 16.8561 21.1067 16.9027 21C16.9694 20.8533 17.0594 20.7633 17.1727 20.73C17.2861 20.6967 17.4161 20.7067 17.5627 20.76C17.6294 20.78 17.7327 20.8167 17.8727 20.87C18.0127 20.9233 18.1694 20.97 18.3427 21.01C18.5161 21.0567 18.6794 21.08 18.8327 21.08C19.3661 21.08 19.7661 20.9567 20.0327 20.71C20.3061 20.4633 20.4427 20.1267 20.4427 19.7V18.8L20.5527 18.87C20.5327 19.01 20.4694 19.1533 20.3627 19.3C20.2627 19.44 20.1294 19.57 19.9627 19.69C19.7961 19.81 19.6027 19.91 19.3827 19.99C19.1694 20.0633 18.9494 20.1 18.7227 20.1C18.2494 20.1 17.8261 19.9833 17.4527 19.75C17.0794 19.51 16.7827 19.1867 16.5627 18.78C16.3427 18.3667 16.2327 17.8933 16.2327 17.36C16.2327 16.8267 16.3427 16.3567 16.5627 15.95C16.7827 15.5367 17.0761 15.2133 17.4427 14.98C17.8161 14.74 18.2327 14.62 18.6927 14.62ZM18.8427 15.54C18.5161 15.54 18.2294 15.62 17.9827 15.78C17.7361 15.94 17.5427 16.1567 17.4027 16.43C17.2627 16.7033 17.1927 17.0133 17.1927 17.36C17.1927 17.7067 17.2627 18.0167 17.4027 18.29C17.5427 18.5633 17.7361 18.78 17.9827 18.94C18.2294 19.1 18.5161 19.18 18.8427 19.18C19.1694 19.18 19.4561 19.1033 19.7027 18.95C19.9494 18.79 20.1427 18.5733 20.2827 18.3C20.4227 18.02 20.4927 17.7067 20.4927 17.36C20.4927 17.0133 20.4227 16.7033 20.2827 16.43C20.1427 16.15 19.9494 15.9333 19.7027 15.78C19.4561 15.62 19.1694 15.54 18.8427 15.54ZM25.4809 14.65C25.9409 14.65 26.2975 14.75 26.5509 14.95C26.8042 15.1433 26.9809 15.4067 27.0809 15.74C27.1875 16.0733 27.2409 16.44 27.2409 16.84V19.49C27.2409 19.6367 27.1909 19.76 27.0909 19.86C26.9975 19.9533 26.8809 20 26.7409 20C26.5942 20 26.4742 19.9533 26.3809 19.86C26.2875 19.76 26.2409 19.6367 26.2409 19.49V16.84C26.2409 16.6067 26.2075 16.3933 26.1409 16.2C26.0809 16.0067 25.9709 15.8533 25.8109 15.74C25.6575 15.6267 25.4409 15.57 25.1609 15.57C24.9009 15.57 24.6675 15.6267 24.4609 15.74C24.2609 15.8533 24.1042 16.0067 23.9909 16.2C23.8842 16.3933 23.8309 16.6067 23.8309 16.84V19.49C23.8309 19.6367 23.7809 19.76 23.6809 19.86C23.5875 19.9533 23.4709 20 23.3309 20C23.1842 20 23.0642 19.9533 22.9709 19.86C22.8775 19.76 22.8309 19.6367 22.8309 19.49V13.11C22.8309 12.9633 22.8775 12.8433 22.9709 12.75C23.0642 12.65 23.1842 12.6 23.3309 12.6C23.4709 12.6 23.5875 12.65 23.6809 12.75C23.7809 12.8433 23.8309 12.9633 23.8309 13.11V15.84L23.6509 15.94C23.6975 15.7933 23.7742 15.6433 23.8809 15.49C23.9942 15.3367 24.1309 15.1967 24.2909 15.07C24.4575 14.9433 24.6409 14.8433 24.8409 14.77C25.0409 14.69 25.2542 14.65 25.4809 14.65ZM28.5616 14.8H30.9116C31.045 14.8 31.155 14.8467 31.2416 14.94C31.335 15.0267 31.3816 15.1367 31.3816 15.27C31.3816 15.3967 31.335 15.5033 31.2416 15.59C31.155 15.6767 31.045 15.72 30.9116 15.72H28.5616C28.4283 15.72 28.315 15.6767 28.2216 15.59C28.135 15.4967 28.0916 15.3867 28.0916 15.26C28.0916 15.1267 28.135 15.0167 28.2216 14.93C28.315 14.8433 28.4283 14.8 28.5616 14.8ZM29.6116 13.5C29.7583 13.5 29.8783 13.55 29.9716 13.65C30.065 13.7433 30.1116 13.8633 30.1116 14.01V18.65C30.1116 18.77 30.1316 18.8667 30.1716 18.94C30.2116 19.0133 30.265 19.0633 30.3316 19.09C30.405 19.1167 30.4783 19.13 30.5516 19.13C30.625 19.13 30.6883 19.1167 30.7416 19.09C30.8016 19.0633 30.8716 19.05 30.9516 19.05C31.0316 19.05 31.105 19.0867 31.1716 19.16C31.2383 19.2333 31.2716 19.3333 31.2716 19.46C31.2716 19.62 31.185 19.75 31.0116 19.85C30.8383 19.95 30.6516 20 30.4516 20C30.3383 20 30.205 19.99 30.0516 19.97C29.8983 19.95 29.7483 19.9 29.6016 19.82C29.4616 19.74 29.345 19.6133 29.2516 19.44C29.1583 19.26 29.1116 19.01 29.1116 18.69V14.01C29.1116 13.8633 29.1583 13.7433 29.2516 13.65C29.3516 13.55 29.4716 13.5 29.6116 13.5Z" fill="#585858"/>
</svg>
