<svg width="26" height="26" viewBox="0 0 26 26" fill="none" xmlns="http://www.w3.org/2000/svg">
<circle cx="13" cy="13" r="13" fill="#292336" fill-opacity="0.15"/>
<path d="M13.0371 5.56903C12.5471 5.56903 12.1621 5.95403 12.1621 6.44403C12.1621 6.93403 12.5471 7.31903 13.0371 7.31903C13.5271 7.31903 13.9121 6.93403 13.9121 6.44403C13.9121 5.95403 13.5271 5.56903 13.0371 5.56903ZM8.66211 7.31903C8.17211 7.31903 7.78711 7.70403 7.78711 8.19403C7.78711 8.68403 8.17211 9.06903 8.66211 9.06903C9.15211 9.06903 9.53711 8.68403 9.53711 8.19403C9.53711 7.70403 9.15211 7.31903 8.66211 7.31903ZM17.4121 7.31903C16.9221 7.31903 16.5371 7.70403 16.5371 8.19403C16.5371 8.68403 16.9221 9.06903 17.4121 9.06903C17.9021 9.06903 18.2871 8.68403 18.2871 8.19403C18.2871 7.70403 17.9021 7.31903 17.4121 7.31903ZM13.0371 9.06903C11.1121 9.06903 9.53711 10.644 9.53711 12.569C9.53711 14.494 11.1121 16.069 13.0371 16.069C14.9621 16.069 16.5371 14.494 16.5371 12.569C16.5371 10.644 14.9621 9.06903 13.0371 9.06903ZM6.91211 11.694C6.42211 11.694 6.03711 12.079 6.03711 12.569C6.03711 13.059 6.42211 13.444 6.91211 13.444C7.40211 13.444 7.78711 13.059 7.78711 12.569C7.78711 12.079 7.40211 11.694 6.91211 11.694ZM19.1621 11.694C18.6721 11.694 18.2871 12.079 18.2871 12.569C18.2871 13.059 18.6721 13.444 19.1621 13.444C19.6521 13.444 20.0371 13.059 20.0371 12.569C20.0371 12.079 19.6521 11.694 19.1621 11.694ZM8.66211 16.069C8.17211 16.069 7.78711 16.454 7.78711 16.944C7.78711 17.434 8.17211 17.819 8.66211 17.819C9.15211 17.819 9.53711 17.434 9.53711 16.944C9.53711 16.454 9.15211 16.069 8.66211 16.069ZM17.4121 16.069C16.9221 16.069 16.5371 16.454 16.5371 16.944C16.5371 17.434 16.9221 17.819 17.4121 17.819C17.9021 17.819 18.2871 17.434 18.2871 16.944C18.2871 16.454 17.9021 16.069 17.4121 16.069ZM13.0371 17.819C12.5471 17.819 12.1621 18.204 12.1621 18.694C12.1621 19.184 12.5471 19.569 13.0371 19.569C13.5271 19.569 13.9121 19.184 13.9121 18.694C13.9121 18.204 13.5271 17.819 13.0371 17.819Z" fill="#FFFEFB"/>
</svg>
