<svg width="54" height="54" viewBox="0 0 54 54" fill="none" xmlns="http://www.w3.org/2000/svg">
<circle cx="27" cy="27" r="27" fill="#FFFEFB" fill-opacity="0.21"/>
<path d="M24.7727 12.0526C24.7727 12.0526 24.7727 12.0526 24.7727 12.0526C19.0348 13.9773 14.8948 19.3884 14.8948 25.78C14.8948 33.8058 21.3953 40.3063 29.4211 40.3063C35.1089 40.3063 40.0203 37.0278 42.3892 32.2622C42.7549 31.5266 42.0353 30.775 41.2305 30.9397C40.3487 31.1201 39.4363 31.2273 38.5 31.2273C30.4742 31.2273 23.9737 24.7268 23.9737 16.701C23.9737 15.0668 24.2642 13.5052 24.7727 12.0526C24.7727 12.0526 24.7727 12.0526 24.7727 12.0526V12.0526Z" fill="#FFFEFB"/>
</svg>
