<svg width="26" height="26" viewBox="0 0 26 26" fill="none" xmlns="http://www.w3.org/2000/svg">
<circle cx="13" cy="13" r="13" fill="#FFFEFB" fill-opacity="0.21"/>
<path d="M12.0948 6.62396C12.0948 6.62396 12.0948 6.62396 12.0948 6.62396C9.57232 7.4701 7.75232 9.84887 7.75232 12.6587C7.75232 16.1869 10.61 19.0447 14.1383 19.0447C16.2404 19.0447 18.1012 18.026 19.2595 16.4567C19.7474 15.7958 19.0469 15.038 18.2256 15.0526C18.1936 15.0531 18.1616 15.0534 18.1295 15.0534C14.6013 15.0534 11.7435 12.1957 11.7435 8.66747C11.7435 7.94905 11.8713 7.26256 12.0948 6.62396C12.0948 6.62396 12.0948 6.62396 12.0948 6.62396V6.62396Z" fill="#FFFEFB"/>
</svg>
